<svg xmlns="http://www.w3.org/2000/svg" width="1024" height="1024" viewBox="0 0 256 256"><defs><linearGradient id="gold" x2="1" y2="1"><stop stop-color="#f8dfa0"/><stop offset=".45" stop-color="#b98b35"/><stop offset="1" stop-color="#f1d187"/></linearGradient></defs><path d="M128 71V17M128 201V239" stroke="#cc86a1" stroke-width="7" stroke-linecap="round" transform="rotate(0 128 128)"/><path d="M128 71V17M128 201V239" stroke="#c8ab65" stroke-width="7" stroke-linecap="round" transform="rotate(30 128 128)"/><path d="M128 71V17M128 201V239" stroke="#7b99b0" stroke-width="7" stroke-linecap="round" transform="rotate(60 128 128)"/><path d="M128 71V17M128 201V239" stroke="#cc86a1" stroke-width="7" stroke-linecap="round" transform="rotate(90 128 128)"/><path d="M128 71V17M128 201V239" stroke="#c8ab65" stroke-width="7" stroke-linecap="round" transform="rotate(120 128 128)"/><path d="M128 71V17M128 201V239" stroke="#7b99b0" stroke-width="7" stroke-linecap="round" transform="rotate(150 128 128)"/><path d="M128 71V17M128 201V239" stroke="#cc86a1" stroke-width="7" stroke-linecap="round" transform="rotate(180 128 128)"/><path d="M128 71V17M128 201V239" stroke="#c8ab65" stroke-width="7" stroke-linecap="round" transform="rotate(210 128 128)"/><path d="M128 71V17M128 201V239" stroke="#7b99b0" stroke-width="7" stroke-linecap="round" transform="rotate(240 128 128)"/><path d="M128 71V17M128 201V239" stroke="#cc86a1" stroke-width="7" stroke-linecap="round" transform="rotate(270 128 128)"/><path d="M128 71V17M128 201V239" stroke="#c8ab65" stroke-width="7" stroke-linecap="round" transform="rotate(300 128 128)"/><path d="M128 71V17M128 201V239" stroke="#7b99b0" stroke-width="7" stroke-linecap="round" transform="rotate(330 128 128)"/></svg>