<svg xmlns="http://www.w3.org/2000/svg" width="1024" height="1024" viewBox="0 0 256 256"><defs><linearGradient id="gold" x2="1" y2="1"><stop stop-color="#f8dfa0"/><stop offset=".45" stop-color="#b98b35"/><stop offset="1" stop-color="#f1d187"/></linearGradient></defs><ellipse cx="128" cy="73" rx="19" ry="43" fill="#d89a68" stroke="#f0ccaa" stroke-width="2" transform="rotate(0 128 128)"/><ellipse cx="128" cy="73" rx="19" ry="43" fill="#d89a68" stroke="#f0ccaa" stroke-width="2" transform="rotate(30 128 128)"/><ellipse cx="128" cy="73" rx="19" ry="43" fill="#d89a68" stroke="#f0ccaa" stroke-width="2" transform="rotate(60 128 128)"/><ellipse cx="128" cy="73" rx="19" ry="43" fill="#d89a68" stroke="#f0ccaa" stroke-width="2" transform="rotate(90 128 128)"/><ellipse cx="128" cy="73" rx="19" ry="43" fill="#d89a68" stroke="#f0ccaa" stroke-width="2" transform="rotate(120 128 128)"/><ellipse cx="128" cy="73" rx="19" ry="43" fill="#d89a68" stroke="#f0ccaa" stroke-width="2" transform="rotate(150 128 128)"/><ellipse cx="128" cy="73" rx="19" ry="43" fill="#d89a68" stroke="#f0ccaa" stroke-width="2" transform="rotate(180 128 128)"/><ellipse cx="128" cy="73" rx="19" ry="43" fill="#d89a68" stroke="#f0ccaa" stroke-width="2" transform="rotate(210 128 128)"/><ellipse cx="128" cy="73" rx="19" ry="43" fill="#d89a68" stroke="#f0ccaa" stroke-width="2" transform="rotate(240 128 128)"/><ellipse cx="128" cy="73" rx="19" ry="43" fill="#d89a68" stroke="#f0ccaa" stroke-width="2" transform="rotate(270 128 128)"/><ellipse cx="128" cy="73" rx="19" ry="43" fill="#d89a68" stroke="#f0ccaa" stroke-width="2" transform="rotate(300 128 128)"/><ellipse cx="128" cy="73" rx="19" ry="43" fill="#d89a68" stroke="#f0ccaa" stroke-width="2" transform="rotate(330 128 128)"/><circle cx="128" cy="128" r="37" fill="#a0668e"/><circle cx="128" cy="128" r="19" fill="#e7c890"/></svg>